<svg width="1024" height="1024" viewBox="0 0 1024 1024" fill="none" xmlns="http://www.w3.org/2000/svg">
<rect width="1024" height="1024" fill="url(#paint0_linear_420_61)"/>
<path fill-rule="evenodd" clip-rule="evenodd" d="M638.914 262.436C655.854 289.448 903.536 694.897 910.741 715.215C918.951 738.369 903.758 756.856 881.674 767.943C866.326 775.656 848.331 776.942 755.857 776.942C663.121 776.942 645.533 775.677 630.724 767.943C617.092 760.828 602.001 739.624 558.397 666.336C512.481 589.152 500.221 572.183 484.817 564.481C471.919 558.286 461.642 557.211 448.576 562.675C433.639 568.921 423.039 583.055 381.845 651.672C303.013 782.957 312.041 776.958 193.377 776.958C148.068 776.958 111 775.584 111 773.902C111 772.224 146.809 711.13 190.582 638.145C240.192 555.415 277.353 499.116 289.258 488.651C340.559 443.548 415.028 431.621 471.617 459.446C487.669 467.344 503.419 476.776 515.975 491.1C524.315 500.613 560.283 556.969 595.897 616.329C633.658 679.271 656.434 723.156 669.909 726.689C684.882 730.615 701.355 721.781 704.813 707.971C708.281 692.062 683.895 654.949 575.78 474.928C503.042 353.815 439.696 249.12 438.52 247C438.52 247 480.963 247 531.956 247H629.804L638.914 262.436Z" fill="#F6F6F6"/>
<defs>
<linearGradient id="paint0_linear_420_61" x1="512" y1="0" x2="512" y2="1024" gradientUnits="userSpaceOnUse">
<stop stop-color="#4CD3FF"/>
<stop offset="1" stop-color="#D573F6"/>
</linearGradient>
</defs>
</svg>
