<svg width="1254" height="300" viewBox="0 0 1254 300" fill="none" xmlns="http://www.w3.org/2000/svg">
<path d="M0 50C0 22.3858 22.3858 0 50 0H250C277.614 0 300 22.3858 300 50V250C300 277.614 277.614 300 250 300H50C22.3858 300 0 277.614 0 250V50Z" fill="url(#paint0_linear_251_18)"/>
<path fill-rule="evenodd" clip-rule="evenodd" d="M187.979 74.6307C193.049 82.7344 267.168 204.369 269.324 210.465C271.781 217.411 267.234 222.957 260.626 226.283C256.033 228.597 250.648 228.983 222.975 228.983C195.223 228.983 189.96 228.603 185.528 226.283C181.449 224.148 176.933 217.787 163.884 195.801C150.144 172.646 146.475 167.555 141.865 165.244C138.006 163.386 134.93 163.063 131.02 164.702C126.55 166.576 123.378 170.817 111.051 191.402C87.4603 230.787 90.162 228.987 54.6516 228.987C41.0926 228.987 30 228.575 30 228.07C30 227.567 40.7159 209.239 53.8151 187.343C68.6611 162.524 79.7813 145.635 83.344 142.495C98.6959 128.964 120.981 125.386 137.915 133.734C142.719 136.103 147.432 138.933 151.19 143.23C153.685 146.084 164.449 162.991 175.106 180.799C186.406 199.681 193.222 212.847 197.255 213.907C201.735 215.084 206.665 212.434 207.7 208.291C208.737 203.519 201.44 192.385 169.086 138.378C147.319 102.044 128.363 70.6359 128.011 70C128.011 70 140.712 70 155.972 70H185.253L187.979 74.6307Z" fill="#FAFAFA"/>
<path d="M419.12 224H378.8L449.12 63.2H500.48L571.28 224H530L514.88 188.48H434.48L419.12 224ZM463.52 121.04L448.4 156.08H500.96L485.84 121.04L476 96.08H473.36L463.52 121.04Z" fill="#FAFAFA"/>
<path d="M615.678 224H579.678V63.2H615.678V224Z" fill="#FAFAFA"/>
<path d="M670.522 224H634.522V63.2H670.522V224Z" fill="#FAFAFA"/>
<path d="M712.406 264.8H692.726V232.16H722.246C731.126 232.16 734.966 229.76 737.366 224.48L678.566 103.76H719.366L744.806 158.72L754.886 187.04H757.286L766.886 158.48L789.686 103.76H829.766L770.246 232.64C758.726 257.84 742.646 264.8 712.406 264.8Z" fill="#FAFAFA"/>
<path d="M899.148 226.4C858.588 226.4 836.268 210.56 836.268 182.72V182H872.268V184.16C872.268 194.96 878.988 197.84 899.388 197.84C918.588 197.84 923.148 194.72 923.148 187.52C923.148 180.8 919.548 178.88 905.388 176.96L871.548 172.88C847.548 170.24 834.108 159.44 834.108 139.28C834.108 118.16 852.108 101.36 893.388 101.36C932.748 101.36 955.068 116.24 955.068 145.52V146.24H919.068V144.8C919.068 134.96 914.268 129.92 892.188 129.92C874.188 129.92 869.628 133.04 869.628 140.72C869.628 146.96 872.988 149.6 888.828 151.52L914.508 154.64C946.668 158.24 958.668 169.04 958.668 188.96C958.668 211.52 936.348 226.4 899.148 226.4Z" fill="#FAFAFA"/>
<path d="M1037.27 226.4C996.234 226.4 968.634 201.92 968.634 164C968.634 125.6 996.234 101.36 1037.27 101.36C1078.31 101.36 1105.91 125.6 1105.91 164C1105.91 201.92 1078.31 226.4 1037.27 226.4ZM1037.27 194.48C1061.51 194.48 1070.15 185.12 1070.15 164C1070.15 142.88 1061.51 133.04 1037.27 133.04C1012.79 133.04 1004.39 142.88 1004.39 164C1004.39 185.12 1012.79 194.48 1037.27 194.48Z" fill="#FAFAFA"/>
<path d="M1156.62 224H1120.62V103.76H1153.98V140.72H1156.14C1159.26 120.56 1173.66 101.36 1205.1 101.36C1237.98 101.36 1253.58 122.48 1253.58 149.12V224H1217.58V161.12C1217.58 141.92 1209.66 133.76 1187.58 133.76C1164.78 133.76 1156.62 142.88 1156.62 163.28V224Z" fill="#FAFAFA"/>
<defs>
<linearGradient id="paint0_linear_251_18" x1="626.788" y1="0" x2="626.788" y2="300" gradientUnits="userSpaceOnUse">
<stop stop-color="#4CD3FF"/>
<stop offset="1" stop-color="#D573F6"/>
</linearGradient>
</defs>
</svg>
