<svg width="150" height="142" viewBox="0 0 150 142" fill="none" xmlns="http://www.w3.org/2000/svg">
<path d="M38.0828 115.012C35.3353 115.012 32.8486 116.142 31.0575 117.968C29.2664 119.776 28.1709 122.298 28.1709 125.045C28.1709 127.793 29.2664 130.314 31.0575 132.123C32.8312 133.931 35.3353 135.079 38.0828 135.079C40.8303 135.079 43.317 133.949 45.1081 132.123C46.8992 130.314 47.9947 127.793 47.9947 125.045C47.9947 122.298 46.8992 119.776 45.1081 117.968C43.317 116.142 40.8303 115.012 38.0828 115.012ZM41.3868 128.454C40.5173 129.323 39.3696 129.845 38.0828 129.845C36.796 129.845 35.6483 129.323 34.7788 128.454C33.9268 127.584 33.3877 126.384 33.3877 125.045C33.3877 123.689 33.9268 122.506 34.7788 121.637C35.6483 120.768 36.796 120.246 38.0828 120.246C39.3696 120.246 40.5173 120.768 41.3868 121.637C42.2388 122.506 42.7779 123.706 42.7779 125.045C42.7779 126.384 42.2388 127.567 41.3868 128.454Z" fill="black"/>
<path d="M137.775 52.8982C138.506 50.2898 138.906 47.5423 138.906 44.7079C138.906 36.3262 135.549 28.6923 130.124 23.1799C124.699 17.6675 117.169 14.2244 108.857 14.2418C105.362 14.2418 102.006 14.8678 98.8929 15.9808C92.4936 6.36448 81.6427 0 69.2963 0C59.8539 0 51.2462 3.7387 44.8818 9.79017C39.4215 14.9896 35.5959 21.9105 34.1873 29.7009C32.7788 29.4922 31.3529 29.3705 29.8748 29.3705C21.6149 29.3705 14.1027 32.7788 8.71203 38.2738C3.33874 43.7341 0 51.3332 0 59.68C0 70.2527 5.3559 79.5908 13.4767 85.0162C13.4593 85.4162 13.4245 85.8161 13.4245 86.2335C13.4245 92.824 15.3895 99.0668 19.1804 103.814C21.0758 106.179 23.4582 108.161 26.223 109.535C29.0053 110.909 32.1702 111.674 35.5785 111.674C36.8653 111.674 38.1173 111.483 39.352 111.239C40.8127 110.926 42.2212 110.526 43.4211 110.144C43.9775 111.152 44.7079 112.335 45.6121 113.552C46.8641 115.221 48.4813 116.96 50.5681 118.438C52.6374 119.899 55.2284 121.064 58.2193 121.447C59.5235 121.603 60.793 121.69 62.0102 121.69C68.9485 121.69 74.4088 119.256 78.0605 116.856C79.5386 115.882 80.7385 114.926 81.6427 114.091C82.3557 114.491 83.1904 114.908 84.1642 115.343C87.2942 116.734 91.7285 118.125 97.0148 118.125C98.2495 118.125 99.5363 118.056 100.84 117.882C107.222 117.047 113.726 114.282 118.838 109.692C121.395 107.396 123.586 104.614 125.151 101.397C126.194 99.2581 126.924 96.9105 127.342 94.4065C127.707 94.4238 128.055 94.476 128.42 94.476C134.384 94.476 139.81 92.0067 143.705 88.042C147.6 84.0946 150 78.617 150 72.6003C150 63.923 145.027 56.4282 137.775 52.8982ZM138.749 83.1556C136.089 85.8509 132.454 87.5029 128.437 87.5029C127.307 87.5029 126.194 87.3638 125.081 87.0856L120.856 86.077L120.786 90.4243C120.734 93.3805 120.073 95.9889 118.925 98.3364C117.221 101.832 114.404 104.753 111.031 106.927C107.657 109.1 103.71 110.492 99.971 110.978C98.9624 111.118 97.9886 111.17 97.0322 111.17C92.9805 111.17 89.4679 110.092 86.9986 108.979C85.764 108.44 84.7902 107.883 84.1294 107.483C83.799 107.292 83.5729 107.118 83.4164 107.014L83.2599 106.909L83.2425 106.892L80.5646 104.857L78.4605 107.466C78.4083 107.518 76.8259 109.396 73.9914 111.187C71.157 112.978 67.14 114.7 62.0276 114.7C61.0886 114.7 60.1148 114.648 59.1062 114.508C57.3847 114.3 55.924 113.639 54.6024 112.717C52.62 111.344 51.0202 109.274 49.9942 107.535C49.4725 106.666 49.09 105.901 48.8465 105.362C48.7248 105.101 48.6378 104.892 48.5857 104.753L48.5335 104.614V104.597L47.3163 101.223L43.9775 102.562L43.9253 102.579C43.6471 102.684 42.2038 103.24 40.4823 103.762C39.6128 104.023 38.6912 104.266 37.8217 104.423C36.9522 104.597 36.1523 104.684 35.6307 104.684C33.2309 104.684 31.179 104.162 29.3531 103.275C26.6404 101.936 24.432 99.6754 22.8669 96.7192C21.3019 93.763 20.415 90.1113 20.415 86.2161C20.415 85.3988 20.4846 84.5467 20.6237 83.6599L20.9541 81.3123L18.8848 80.1472C11.8073 76.1651 6.9905 68.5138 6.9905 59.6627C6.9905 53.1764 9.56411 47.351 13.7375 43.108C17.911 38.8825 23.6147 36.2914 29.9444 36.2741C32.118 36.2741 34.2221 36.6045 36.2393 37.1957L40.3779 38.3956L40.6735 34.1004C41.2126 26.4839 44.5861 19.6847 49.7334 14.7809C54.8806 9.87712 61.7494 6.90355 69.3485 6.90355C80.1472 6.90355 89.5548 12.955 94.4934 21.9627L96.0758 24.8667L99.0494 23.4234C102.058 21.9627 105.379 21.1454 108.909 21.1454C115.274 21.1454 121.029 23.7538 125.22 28.0141C129.411 32.2745 132.002 38.1347 132.002 44.6731C132.002 47.8379 131.376 50.8463 130.263 53.5938L128.82 57.1586L132.506 58.2367C138.575 60.0104 143.096 65.7315 143.079 72.5655C143.044 76.7389 141.41 80.4602 138.749 83.1556Z" fill="black"/>
<path d="M25.7706 141.966C27.9507 141.966 29.718 140.175 29.718 137.966C29.718 135.757 27.9507 133.967 25.7706 133.967C23.5905 133.967 21.8232 135.757 21.8232 137.966C21.8232 140.175 23.5905 141.966 25.7706 141.966Z" fill="black"/>
</svg>
