<svg width="396" height="261" viewBox="0 0 396 261" fill="none" xmlns="http://www.w3.org/2000/svg">
<path fill-rule="evenodd" clip-rule="evenodd" d="M260.666 7.60135C269.03 20.9037 391.327 220.568 394.885 230.574C398.939 241.976 391.437 251.08 380.532 256.54C372.954 260.338 364.069 260.972 318.408 260.972C272.618 260.972 263.934 260.348 256.622 256.54C249.891 253.036 242.439 242.594 220.909 206.503C198.238 168.494 192.184 160.137 184.578 156.344C178.209 153.294 173.135 152.764 166.684 155.455C159.308 158.531 154.074 165.491 133.734 199.282C94.8095 263.934 99.2673 260.979 40.6751 260.979C18.3028 260.979 0 260.303 0 259.474C0 258.648 17.6812 228.562 39.2949 192.62C63.7908 151.88 82.1392 124.155 88.0177 119.001C113.348 96.7904 150.119 90.9171 178.06 104.62C185.986 108.509 193.763 113.154 199.963 120.208C204.081 124.893 221.841 152.645 239.425 181.877C258.071 212.873 269.316 234.484 275.97 236.224C283.363 238.158 291.497 233.807 293.205 227.006C294.917 219.172 282.876 200.896 229.492 112.244C193.577 52.6012 162.299 1.04392 161.718 0C161.718 0 182.675 1.43096e-05 207.853 1.43096e-05H256.168L260.666 7.60135Z" fill="url(#paint0_radial_642_2401)"/>
<defs>
<radialGradient id="paint0_radial_642_2401" cx="0" cy="0" r="1" gradientUnits="userSpaceOnUse" gradientTransform="translate(198.168 237.577) rotate(108.128) scale(735.519 2480.09)">
<stop stop-color="white"/>
<stop offset="1" stop-color="white" stop-opacity="0.5"/>
</radialGradient>
</defs>
</svg>
