<svg width="797" height="213" viewBox="0 0 797 213" fill="none" xmlns="http://www.w3.org/2000/svg">
<path d="M126.813 99.0893C126.602 75.6246 146.031 64.209 146.92 63.6775C135.916 47.6388 118.861 45.4475 112.868 45.2727C98.5432 43.7657 84.6486 53.8417 77.3517 53.8417C69.9092 53.8417 58.6726 45.4183 46.5621 45.6659C30.978 45.9061 16.3988 54.9265 8.40286 68.934C-8.09884 97.4949 4.20826 139.466 20.0181 162.552C27.9267 173.866 37.168 186.483 49.2639 186.039C61.0976 185.558 65.518 178.504 79.7986 178.504C93.9481 178.504 98.099 186.039 110.435 185.755C123.136 185.558 131.132 174.397 138.763 162.989C147.903 150.037 151.573 137.268 151.719 136.612C151.427 136.51 127.061 127.206 126.813 99.0893ZM103.51 30.0859C109.874 22.1284 114.229 11.3025 113.02 0.316406C103.808 0.724107 92.2877 6.68674 85.6535 14.4695C79.784 21.3276 74.5407 32.5685 75.8953 43.1396C86.2434 43.9113 96.8683 37.9195 103.51 30.0859Z" fill="white"/>
<path d="M298.215 184.411H281.677L272.618 155.952H241.129L232.5 184.411H216.398L247.603 87.5241H266.872L298.215 184.411ZM269.887 144.013L261.694 118.713C260.828 116.129 259.197 110.042 256.808 100.461H256.517C255.555 104.582 254.019 110.668 251.914 118.713L243.86 144.013H269.887ZM378.306 148.621C378.306 160.503 375.08 169.894 368.62 176.789C362.838 182.926 355.651 185.991 347.079 185.991C337.824 185.991 331.168 182.693 327.126 176.083V212.739H311.6V137.511C311.6 130.049 311.403 122.397 311.025 114.549H324.679L325.546 125.622H325.837C331.015 117.279 338.872 113.107 349.417 113.107C357.661 113.107 364.542 116.362 370.048 122.878C375.546 129.408 378.306 137.984 378.306 148.621ZM362.489 149.189C362.489 142.389 360.959 136.783 357.886 132.364C354.529 127.77 350.021 125.469 344.37 125.469C340.54 125.469 337.059 126.751 333.949 129.277C330.833 131.825 328.794 135.152 327.84 139.273C327.414 140.814 327.172 142.4 327.119 143.998V155.654C327.119 160.728 328.677 165.016 331.794 168.526C334.911 172.02 338.96 173.775 343.941 173.775C349.788 173.775 354.34 171.51 357.595 167.018C360.858 162.512 362.489 156.571 362.489 149.189ZM458.681 148.621C458.681 160.503 455.455 169.894 448.995 176.789C443.206 182.926 436.025 185.991 427.447 185.991C418.191 185.991 411.535 182.693 407.493 176.083V212.739H391.968V137.511C391.968 130.049 391.771 122.397 391.392 114.549H405.047L405.913 125.622H406.204C411.375 117.279 419.232 113.107 429.785 113.107C438.021 113.107 444.903 116.362 450.423 122.878C455.913 129.408 458.681 137.984 458.681 148.621ZM442.856 149.189C442.856 142.389 441.32 136.783 438.247 132.364C434.889 127.77 430.396 125.469 424.745 125.469C420.915 125.469 417.434 126.751 414.31 129.277C411.193 131.825 409.161 135.152 408.207 139.273C407.734 141.195 407.479 142.76 407.479 143.998V155.654C407.479 160.728 409.044 165.016 412.147 168.526C415.264 172.013 419.313 173.775 424.308 173.775C430.163 173.775 434.715 171.51 437.963 167.018C441.225 162.512 442.856 156.571 442.856 149.189ZM548.544 157.234C548.544 165.482 545.661 172.188 539.929 177.364C533.623 183.013 524.819 185.846 513.531 185.846C503.103 185.846 494.743 183.836 488.436 179.81L492.026 166.873C498.835 170.906 506.314 172.916 514.456 172.916C520.311 172.916 524.862 171.591 528.11 168.962C531.365 166.327 533.011 162.803 533.011 158.406C533.011 154.467 531.649 151.169 528.977 148.483C526.29 145.803 521.847 143.306 515.606 141.013C498.639 134.686 490.148 125.433 490.148 113.26C490.148 105.31 493.148 98.8014 499.134 93.7124C505.12 88.6307 513.058 86.0898 522.932 86.0898C531.751 86.0898 539.099 87.626 544.932 90.691L541.036 103.344C535.545 100.374 529.348 98.8887 522.415 98.8887C516.939 98.8887 512.643 100.236 509.569 102.915C506.984 105.31 505.673 108.229 505.673 111.695C505.673 115.517 507.166 118.691 510.137 121.181C512.715 123.475 517.42 125.972 524.221 128.651C532.567 132.014 538.699 135.931 542.624 140.431C546.578 144.93 548.544 150.543 548.544 157.234ZM600.008 126.197H582.895V160.117C582.895 168.744 585.91 173.047 591.954 173.047C594.729 173.047 597.03 172.814 598.85 172.326L599.28 184.113C596.222 185.256 592.194 185.831 587.206 185.831C581.074 185.831 576.283 183.96 572.824 180.218C569.379 176.476 567.646 170.207 567.646 161.383V126.168H557.451V114.52H567.646V101.728L582.895 97.1269V114.52H600.008V126.197ZM677.07 148.905C677.07 159.643 673.997 168.46 667.865 175.355C661.449 182.453 652.914 185.991 642.275 185.991C632.007 185.991 623.843 182.591 617.755 175.799C611.667 168.991 608.623 160.415 608.623 150.07C608.623 139.244 611.769 130.376 618.039 123.482C624.324 116.58 632.786 113.129 643.425 113.129C653.679 113.129 661.915 116.536 668.149 123.336C674.106 129.932 677.07 138.45 677.07 148.905ZM660.976 149.262C660.976 142.862 659.592 137.373 656.818 132.779C653.562 127.231 648.902 124.457 642.865 124.457C636.646 124.457 631.876 127.231 628.628 132.779C625.846 137.373 624.462 142.957 624.462 149.553C624.462 155.96 625.846 161.464 628.628 166.043C631.985 171.591 636.667 174.364 642.734 174.364C648.669 174.364 653.322 171.532 656.687 165.905C659.541 161.201 660.976 155.676 660.976 149.262ZM727.558 128.2C725.943 127.908 724.305 127.764 722.664 127.77C717.202 127.77 712.979 129.823 710.008 133.958C707.43 137.598 706.133 142.2 706.133 147.755V184.411H690.608V136.55C690.621 129.216 690.471 121.883 690.156 114.556H703.679L704.247 127.923H704.677C706.323 123.329 708.901 119.623 712.44 116.849C715.679 114.426 719.616 113.113 723.662 113.107C725.097 113.107 726.393 113.209 727.543 113.391L727.558 128.2ZM796.995 146.175C797.034 148.534 796.844 150.892 796.427 153.215H749.849C750.024 160.117 752.281 165.402 756.607 169.042C760.532 172.289 765.608 173.92 771.842 173.92C778.738 173.92 785.03 172.828 790.688 170.622L793.121 181.39C786.508 184.273 778.702 185.707 769.693 185.707C758.857 185.707 750.352 182.518 744.162 176.155C737.986 169.785 734.891 161.223 734.891 150.499C734.891 139.972 737.768 131.199 743.528 124.203C749.558 116.733 757.707 112.998 767.96 112.998C778.032 112.998 785.656 116.733 790.834 124.203C794.934 130.122 796.995 137.46 796.995 146.175ZM782.19 142.149C782.299 137.54 781.279 133.572 779.175 130.216C776.488 125.892 772.351 123.737 766.81 123.737C761.734 123.737 757.597 125.841 754.452 130.063C751.866 133.42 750.33 137.453 749.856 142.134L782.19 142.149Z" fill="white"/>
<path d="M236.648 53.273C232.33 53.273 228.594 53.0618 225.484 52.7051V5.86316C229.833 5.19151 234.228 4.86046 238.629 4.87303C256.434 4.87303 264.634 13.6313 264.634 27.9081C264.634 44.3764 254.949 53.273 236.648 53.273ZM239.255 10.8793C236.852 10.8793 234.806 11.0249 233.109 11.3744V46.9827C234.026 47.1283 235.789 47.1939 238.265 47.1939C249.931 47.1939 256.573 40.5542 256.573 28.1193C256.573 17.0313 250.565 10.8793 239.255 10.8793ZM290.188 53.6297C280.153 53.6297 273.65 46.1382 273.65 35.9675C273.65 25.3673 280.291 17.8103 290.756 17.8103C300.645 17.8103 307.294 24.945 307.294 35.4069C307.294 46.1382 300.441 53.6297 290.188 53.6297ZM290.479 23.387C284.966 23.387 281.434 28.5415 281.434 35.7491C281.434 42.8183 285.039 47.9729 290.406 47.9729C295.773 47.9729 299.378 42.4616 299.378 35.6035C299.378 28.6143 295.846 23.387 290.479 23.387ZM364.518 18.5165L353.777 52.8507H346.778L342.329 37.9405C341.223 34.2934 340.301 30.5926 339.569 26.8525H339.423C338.863 30.5946 337.799 34.344 336.671 37.9405L331.937 52.8507H324.866L314.758 18.5165H322.601L326.49 34.8391C327.407 38.7268 328.179 42.3961 328.82 45.8615H328.966C329.527 42.9712 330.444 39.3602 331.791 34.9119L336.671 18.5237H342.89L347.558 34.5624C348.686 38.4501 349.604 42.265 350.318 45.8688H350.522C351.017 42.3378 351.796 38.5884 352.852 34.5624L357.025 18.5237L364.518 18.5165ZM404.061 52.8507H396.429V33.1355C396.429 27.0636 394.099 24.0204 389.504 24.0204C384.981 24.0204 381.872 27.9081 381.872 32.4293V52.8507H374.24V28.3304C374.24 25.2945 374.167 22.0402 373.956 18.5092H380.67L381.027 23.8093H381.238C383.292 20.14 387.457 17.8103 392.125 17.8103C399.335 17.8103 404.068 23.3215 404.068 32.2909L404.061 52.8507ZM425.107 52.8507H417.468V2.76172H425.107V52.8507ZM452.933 53.6297C442.905 53.6297 436.394 46.1382 436.394 35.9675C436.394 25.3673 443.036 17.8103 453.493 17.8103C463.39 17.8103 470.031 24.945 470.031 35.4069C470.039 46.1382 463.179 53.6297 452.933 53.6297ZM453.217 23.387C447.704 23.387 444.172 28.5415 444.172 35.7491C444.172 42.8183 447.784 47.9729 453.136 47.9729C458.511 47.9729 462.108 42.4616 462.108 35.6035C462.116 28.6143 458.591 23.387 453.217 23.387ZM500.122 52.8507L499.568 48.8975H499.365C497.034 52.079 493.633 53.6297 489.322 53.6297C483.169 53.6297 478.799 49.3197 478.799 43.5245C478.799 35.0502 486.147 30.6674 498.869 30.6674V30.034C498.869 25.5129 496.473 23.2487 491.74 23.2487C488.354 23.2487 485.383 24.1005 482.768 25.7968L481.217 20.7806C484.392 18.8004 488.354 17.8103 493.007 17.8103C501.979 17.8103 506.508 22.5425 506.508 32.0143V44.6603C506.508 48.1257 506.661 50.8122 507.004 52.858L500.122 52.8507ZM499.073 35.7491C490.597 35.7491 486.344 37.8022 486.344 42.6727C486.344 46.2765 488.536 48.0384 491.58 48.0384C495.461 48.0384 499.073 45.0753 499.073 41.0492V35.7491ZM543.568 52.8507L543.211 47.3395H543C540.808 51.5038 537.123 53.6297 531.975 53.6297C523.695 53.6297 517.563 46.3493 517.563 36.1058C517.563 25.3673 523.92 17.803 532.601 17.803C537.196 17.803 540.451 19.3537 542.286 22.4697H542.439V2.76172H550.078V43.5973C550.078 46.9172 550.159 50.0259 550.362 52.8507H543.568ZM542.439 32.6477C542.439 27.8426 539.257 23.7438 534.4 23.7438C528.741 23.7438 525.282 28.7599 525.282 35.8219C525.282 42.7455 528.872 47.4851 534.247 47.4851C539.046 47.4851 542.439 43.3134 542.439 38.37V32.6477ZM598.513 53.6297C588.485 53.6297 581.982 46.1382 581.982 35.9675C581.982 25.3673 588.624 17.8103 599.081 17.8103C608.978 17.8103 615.619 24.945 615.619 35.4069C615.626 46.1382 608.774 53.6297 598.513 53.6297ZM598.797 23.387C593.292 23.387 589.76 28.5415 589.76 35.7491C589.76 42.8183 593.364 47.9729 598.724 47.9729C604.099 47.9729 607.696 42.4616 607.696 35.6035C607.711 28.6143 604.179 23.387 598.797 23.387ZM656.662 52.8507H649.023V33.1355C649.023 27.0636 646.693 24.0204 642.098 24.0204C637.575 24.0204 634.473 27.9081 634.473 32.4293V52.8507H626.834V28.3304C626.834 25.2945 626.761 22.0402 626.55 18.5092H633.264L633.621 23.8093H633.832C635.879 20.14 640.051 17.803 644.712 17.803C651.921 17.803 656.662 23.3142 656.662 32.2836V52.8507ZM708.01 24.2388H699.613V40.9109C699.613 45.1554 701.084 47.2739 704.055 47.2739C705.403 47.2739 706.531 47.1283 707.442 46.9172L707.653 52.7124C706.175 53.2802 704.194 53.5642 701.732 53.5642C695.717 53.5642 692.12 50.2443 692.12 41.5516V24.2388H687.11V18.5165H692.12V12.2262L699.613 9.96201V18.5092H708.01V24.2388ZM748.412 52.8507H740.787V33.2811C740.787 27.1364 738.464 24.0277 733.862 24.0277C729.908 24.0277 726.223 26.7142 726.223 32.1526V52.8507H718.598V2.76172H726.223V23.387H726.376C728.779 19.6449 732.26 17.803 736.702 17.803C743.97 17.803 748.412 23.4526 748.412 32.4293V52.8507ZM789.805 37.5182H766.902C767.047 44.0196 771.351 47.6889 777.723 47.6889C781.11 47.6889 784.226 47.1211 786.979 46.0654L788.166 51.3655C784.918 52.7779 781.095 53.4841 776.645 53.4841C765.904 53.4841 759.547 46.6988 759.547 36.1786C759.547 25.6512 766.057 17.7375 775.786 17.7375C784.561 17.7375 790.067 24.2388 790.067 34.0601C790.116 35.2191 790.028 36.3799 789.805 37.5182ZM782.806 32.0798C782.806 26.7797 780.134 23.0376 775.255 23.0376C770.871 23.0376 767.404 26.8525 766.909 32.0798H782.806Z" fill="white"/>
</svg>
