<svg width="801" height="175" viewBox="0 0 801 175" fill="none" xmlns="http://www.w3.org/2000/svg">
<path d="M274.335 144.497C267.16 144.497 261.169 142.056 256.325 137.211C251.48 132.367 249.039 126.302 249.039 119.053C249.039 111.805 251.48 105.74 256.325 100.895C261.169 96.0502 267.197 93.6094 274.335 93.6094C281.694 93.6094 287.649 96.2721 292.234 101.561L287.87 105.777C284.542 101.635 280.03 99.6005 274.335 99.6005C269.046 99.6005 264.535 101.376 260.91 104.963C257.249 108.55 255.437 113.247 255.437 119.053C255.437 124.859 257.249 129.556 260.91 133.143C264.572 136.731 269.046 138.506 274.335 138.506C280.178 138.506 285.171 136.139 289.313 131.442L293.677 135.806C291.458 138.469 288.647 140.614 285.319 142.167C281.953 143.72 278.292 144.497 274.335 144.497Z" fill="white"/>
<path d="M305.5 94.7227V110.107L305.241 114.73H305.5C306.425 113.14 307.83 111.808 309.79 110.699C311.75 109.59 313.821 109.035 316.04 109.035C320.182 109.035 323.325 110.292 325.507 112.844C327.689 115.396 328.762 118.798 328.762 123.051V143.465H322.512V124.013C322.512 117.837 319.775 114.767 314.265 114.767C311.676 114.767 309.568 115.803 307.941 117.874C306.314 119.945 305.5 122.311 305.5 125.048V143.465H299.25V94.7597H305.5V94.7227Z" fill="white"/>
<path d="M342.383 143.389H336.133V110.068H342.124V115.504H342.383C343.012 113.692 344.306 112.175 346.303 111.029C348.263 109.846 350.186 109.254 352.035 109.254C353.884 109.254 355.475 109.513 356.732 110.068L354.365 115.911C353.551 115.578 352.442 115.43 351.037 115.43C348.781 115.43 346.747 116.317 345.009 118.13C343.27 119.905 342.383 122.272 342.383 125.156V143.389Z" fill="white"/>
<path d="M361.681 114.063C364.898 110.697 369.003 108.996 373.996 108.996C378.988 108.996 383.093 110.697 386.311 114.063C389.528 117.428 391.155 121.681 391.155 126.748C391.155 131.814 389.528 136.067 386.311 139.432C383.093 142.798 378.988 144.499 373.996 144.499C369.003 144.499 364.898 142.798 361.681 139.432C358.463 136.067 356.836 131.814 356.836 126.748C356.836 121.681 358.463 117.428 361.681 114.063ZM366.34 135.475C368.485 137.657 371.037 138.767 373.996 138.767C376.954 138.767 379.506 137.657 381.651 135.475C383.796 133.293 384.868 130.372 384.868 126.748C384.868 123.123 383.796 120.202 381.651 118.02C379.506 115.838 376.954 114.728 373.996 114.728C371.037 114.728 368.485 115.838 366.34 118.02C364.195 120.202 363.123 123.123 363.123 126.748C363.123 130.372 364.195 133.293 366.34 135.475Z" fill="white"/>
<path d="M396.156 143.39V110.069H402.147V114.691H402.406C403.368 113.101 404.81 111.77 406.807 110.66C408.767 109.551 410.727 108.996 412.687 108.996C417.865 108.996 421.378 111.141 423.227 115.394C425.964 111.141 429.81 108.996 434.877 108.996C438.834 108.996 441.792 110.254 443.789 112.768C445.786 115.283 446.785 118.685 446.785 123.012V143.427H440.535V123.974C440.535 120.609 439.906 118.242 438.686 116.836C437.465 115.431 435.616 114.728 433.101 114.728C430.661 114.728 428.627 115.764 426.999 117.872C425.372 119.943 424.596 122.347 424.596 125.009V143.427H418.346V123.974C418.346 120.609 417.717 118.242 416.496 116.836C415.276 115.431 413.427 114.728 410.912 114.728C408.471 114.728 406.437 115.764 404.81 117.872C403.183 119.943 402.406 122.347 402.406 125.009V143.427H396.156V143.39Z" fill="white"/>
<path d="M469.238 144.499C464.209 144.499 460.104 142.835 456.96 139.469C453.817 136.104 452.227 131.888 452.227 126.748C452.227 121.903 453.743 117.724 456.812 114.248C459.882 110.771 463.802 108.996 468.536 108.996C473.491 108.996 477.448 110.623 480.407 113.841C483.366 117.058 484.845 121.385 484.845 126.748L484.771 127.894H458.44C458.625 131.259 459.734 133.885 461.805 135.845C463.876 137.805 466.28 138.767 469.053 138.767C473.528 138.767 476.598 136.844 478.151 133.035L483.735 135.364C482.663 137.953 480.851 140.098 478.373 141.873C475.932 143.611 472.863 144.499 469.238 144.499ZM478.225 122.717C478.077 120.793 477.227 118.981 475.599 117.28C474.009 115.542 471.605 114.691 468.425 114.691C466.095 114.691 464.098 115.431 462.397 116.873C460.695 118.316 459.512 120.276 458.883 122.717H478.225Z" fill="white"/>
<path d="M560.644 94.7227L547.663 143.428H541.265L530.799 111.328H530.54L520.074 143.428H513.676L500.141 94.7227H506.686L516.968 133.036H517.226L527.766 101.269H533.61L544.149 133.036H544.408L554.135 94.7227H560.644Z" fill="white"/>
<path d="M576.891 144.499C571.861 144.499 567.756 142.835 564.613 139.469C561.469 136.104 559.879 131.888 559.879 126.748C559.879 121.903 561.395 117.724 564.465 114.248C567.534 110.771 571.454 108.996 576.188 108.996C581.144 108.996 585.101 110.623 588.059 113.841C591.018 117.058 592.497 121.385 592.497 126.748L592.423 127.894H566.092C566.277 131.259 567.386 133.885 569.457 135.845C571.528 137.805 573.932 138.767 576.706 138.767C581.181 138.767 584.25 136.844 585.803 133.035L591.388 135.364C590.315 137.953 588.503 140.098 586.025 141.873C583.585 143.611 580.515 144.499 576.891 144.499ZM585.877 122.717C585.729 120.793 584.879 118.981 583.252 117.28C581.661 115.542 579.258 114.691 576.077 114.691C573.747 114.691 571.75 115.431 570.049 116.873C568.348 118.316 567.164 120.276 566.536 122.717H585.877Z" fill="white"/>
<path d="M615.865 144.501C613.313 144.501 611.058 143.946 609.024 142.874C606.99 141.801 605.51 140.433 604.512 138.805H604.253V143.428H598.262V94.7227H604.512V110.107L604.253 114.73H604.512C605.51 113.103 607.027 111.734 609.024 110.662C611.058 109.59 613.313 109.035 615.865 109.035C620.155 109.035 623.89 110.736 627.034 114.138C630.177 117.541 631.731 121.757 631.731 126.786C631.731 131.816 630.177 136.032 627.034 139.434C623.89 142.8 620.192 144.501 615.865 144.501ZM614.867 138.769C617.751 138.769 620.266 137.659 622.337 135.477C624.408 133.295 625.481 130.374 625.481 126.749C625.481 123.125 624.445 120.203 622.337 118.021C620.266 115.84 617.751 114.73 614.867 114.73C611.908 114.73 609.43 115.803 607.359 117.985C605.288 120.166 604.253 123.088 604.253 126.749C604.253 130.411 605.288 133.332 607.359 135.514C609.393 137.696 611.908 138.769 614.867 138.769Z" fill="white"/>
<path d="M665.205 144.497C661.655 144.497 658.216 143.351 654.85 141.021C651.485 138.691 649.266 135.473 648.23 131.294L653.963 128.964C654.628 131.627 656.034 133.883 658.142 135.732C660.25 137.581 662.617 138.469 665.242 138.469C667.979 138.469 670.272 137.766 672.232 136.324C674.155 134.882 675.117 132.959 675.117 130.518C675.117 127.781 674.155 125.71 672.232 124.231C670.309 122.751 667.239 121.383 663.097 120.126C658.77 118.757 655.516 117.019 653.297 114.837C651.078 112.692 649.969 109.919 649.969 106.59C649.969 103.114 651.337 100.044 654.111 97.4925C656.884 94.9038 660.472 93.6094 664.909 93.6094C669.052 93.6094 672.38 94.6449 674.969 96.7159C677.557 98.7869 679.222 101.043 679.998 103.484L674.266 105.851C673.859 104.297 672.861 102.892 671.233 101.561C669.643 100.229 667.535 99.6005 665.02 99.6005C662.617 99.6005 660.583 100.266 658.881 101.598C657.18 102.929 656.33 104.593 656.33 106.59C656.33 108.402 657.106 109.919 658.659 111.176C660.213 112.433 662.543 113.543 665.575 114.541C667.979 115.318 669.976 116.058 671.603 116.797C673.194 117.537 674.858 118.498 676.485 119.682C678.149 120.902 679.37 122.382 680.22 124.157C681.071 125.932 681.478 128.04 681.478 130.37C681.478 132.737 680.997 134.845 679.998 136.694C679.037 138.543 677.742 140.022 676.115 141.132C674.488 142.204 672.787 143.055 670.901 143.609C669.051 144.201 667.128 144.497 665.205 144.497Z" fill="white"/>
<path d="M700.697 143.94C697.221 143.94 694.558 143.016 692.709 141.167C690.86 139.318 689.972 136.692 689.972 133.289V115.797H684.129V110.102H689.972V99.8945H696.222V110.102H704.395V115.797H696.222V132.809C696.222 136.433 697.701 138.245 700.697 138.245C701.843 138.245 702.768 138.06 703.545 137.69L705.727 143.053C704.358 143.645 702.694 143.94 700.697 143.94Z" fill="white"/>
<path d="M712.942 114.063C716.16 110.697 720.265 108.996 725.257 108.996C730.25 108.996 734.355 110.697 737.573 114.063C740.79 117.428 742.417 121.681 742.417 126.748C742.417 131.814 740.827 136.067 737.573 139.432C734.355 142.798 730.25 144.499 725.257 144.499C720.265 144.499 716.16 142.798 712.942 139.432C709.725 136.067 708.098 131.814 708.098 126.748C708.098 121.681 709.725 117.428 712.942 114.063ZM717.602 135.475C719.747 137.657 722.299 138.767 725.257 138.767C728.216 138.767 730.768 137.657 732.913 135.475C735.058 133.293 736.13 130.372 736.13 126.748C736.13 123.123 735.058 120.202 732.913 118.02C730.768 115.838 728.216 114.728 725.257 114.728C722.299 114.728 719.747 115.838 717.602 118.02C715.457 120.202 714.385 123.123 714.385 126.748C714.385 130.372 715.457 133.293 717.602 135.475Z" fill="white"/>
<path d="M753.695 143.389H747.445V110.068H753.436V115.504H753.695C754.324 113.692 755.618 112.175 757.615 111.029C759.575 109.846 761.499 109.254 763.348 109.254C765.197 109.254 766.787 109.513 768.044 110.068L765.678 115.911C764.864 115.578 763.754 115.43 762.349 115.43C760.093 115.43 758.059 116.317 756.321 118.13C754.583 119.905 753.695 122.272 753.695 125.156V143.389Z" fill="white"/>
<path d="M785.176 144.499C780.146 144.499 776.041 142.835 772.898 139.469C769.754 136.104 768.164 131.888 768.164 126.748C768.164 121.903 769.68 117.724 772.75 114.248C775.819 110.771 779.74 108.996 784.473 108.996C789.429 108.996 793.386 110.623 796.345 113.841C799.303 117.058 800.782 121.385 800.782 126.748L800.708 127.894H774.377C774.562 131.259 775.671 133.885 777.742 135.845C779.813 137.805 782.217 138.767 784.991 138.767C789.466 138.767 792.535 136.844 794.089 133.035L799.673 135.364C798.6 137.953 796.788 140.098 794.311 141.873C791.87 143.611 788.8 144.499 785.176 144.499ZM794.163 122.717C794.015 120.793 793.164 118.981 791.537 117.28C789.947 115.542 787.543 114.691 784.362 114.691C782.032 114.691 780.035 115.431 778.334 116.873C776.633 118.316 775.45 120.276 774.821 122.717H794.163Z" fill="white"/>
<path d="M252.664 67.801L266.569 30.9297H271.932L285.837 67.801H280.586L277.035 57.8158H261.54L257.953 67.801H252.664ZM263.13 53.3779H275.371L269.343 36.7359H269.121L263.13 53.3779Z" fill="white"/>
<path d="M294.262 67.7961L284.055 42.5742H289.195L296.592 62.1378H296.703L304.21 42.5742H309.24L298.959 67.7961H294.262Z" fill="white"/>
<path d="M319.821 68.6087C317.158 68.6087 314.902 67.8321 313.09 66.2788C311.278 64.7256 310.391 62.6916 310.391 60.1398C310.391 57.4031 311.463 55.2582 313.571 53.6679C315.716 52.1147 318.305 51.338 321.448 51.338C324.222 51.338 326.515 51.8558 328.29 52.8913V52.1516C328.29 50.3025 327.661 48.8233 326.404 47.7138C325.147 46.6043 323.556 46.0495 321.707 46.0495C320.339 46.0495 319.081 46.3824 317.972 47.0111C316.863 47.6768 316.086 48.5644 315.679 49.6738L311.352 47.8247C311.944 46.3085 313.09 44.9031 314.791 43.6457C316.493 42.3513 318.786 41.7227 321.596 41.7227C324.814 41.7227 327.513 42.6842 329.621 44.5703C331.766 46.4564 332.802 49.1191 332.802 52.5585V67.7951H328.253V64.2818H328.031C326.219 67.1664 323.482 68.6087 319.821 68.6087ZM320.598 64.2818C322.558 64.2818 324.333 63.5422 325.923 62.0999C327.513 60.6576 328.327 58.9194 328.327 56.9223C326.996 55.8129 324.999 55.2581 322.299 55.2581C320.006 55.2581 318.268 55.7389 317.084 56.7374C315.901 57.7359 315.346 58.8824 315.346 60.2508C315.346 61.4712 315.864 62.4697 316.936 63.1723C318.009 63.912 319.229 64.2818 320.598 64.2818Z" fill="white"/>
<path d="M343.344 36.25C342.678 36.9156 341.901 37.2115 340.977 37.2115C340.052 37.2115 339.276 36.8787 338.61 36.25C337.944 35.5843 337.648 34.8077 337.648 33.8831C337.648 32.9585 337.981 32.1819 338.61 31.5162C339.276 30.8506 340.052 30.5547 340.977 30.5547C341.901 30.5547 342.678 30.8875 343.344 31.5162C344.009 32.1819 344.305 32.9585 344.305 33.8831C344.305 34.8077 344.009 35.5843 343.344 36.25ZM343.344 67.7958H338.61V42.5739H343.344V67.7958Z" fill="white"/>
<path d="M354.288 67.801H349.555V30.9297H354.288V67.801Z" fill="white"/>
<path d="M367.755 68.6087C365.092 68.6087 362.836 67.8321 361.024 66.2788C359.212 64.7256 358.324 62.6916 358.324 60.1398C358.324 57.4031 359.397 55.2582 361.505 53.6679C363.65 52.1147 366.238 51.338 369.382 51.338C372.156 51.338 374.449 51.8558 376.224 52.8913V52.1516C376.224 50.3025 375.595 48.8233 374.338 47.7138C373.08 46.6043 371.49 46.0495 369.641 46.0495C368.272 46.0495 367.015 46.3824 365.906 47.0111C364.796 47.6768 364.02 48.5644 363.613 49.6738L359.286 47.8247C359.878 46.3085 361.024 44.9031 362.725 43.6457C364.426 42.3513 366.719 41.7227 369.53 41.7227C372.747 41.7227 375.447 42.6842 377.555 44.5703C379.7 46.4564 380.735 49.1191 380.735 52.5585V67.7951H376.187V64.2818H375.965C374.153 67.1664 371.416 68.6087 367.755 68.6087ZM368.531 64.2818C370.491 64.2818 372.267 63.5422 373.857 62.0999C375.447 60.6576 376.261 58.9194 376.261 56.9223C374.929 55.8129 372.932 55.2581 370.233 55.2581C367.94 55.2581 366.201 55.7389 365.018 56.7374C363.835 57.7359 363.28 58.8824 363.28 60.2508C363.28 61.4712 363.798 62.4697 364.87 63.1723C365.943 63.912 367.163 64.2818 368.531 64.2818Z" fill="white"/>
<path d="M399.477 68.6146C397.554 68.6146 395.816 68.2078 394.3 67.3942C392.784 66.5806 391.637 65.5451 390.861 64.2877H390.639V67.801H386.09V30.9297H390.824V42.5791L390.602 46.0924H390.824C391.563 44.872 392.71 43.8365 394.263 43.0229C395.779 42.2093 397.517 41.8025 399.44 41.8025C402.695 41.8025 405.506 43.0968 407.872 45.6486C410.239 48.2374 411.423 51.4179 411.423 55.227C411.423 59.0362 410.239 62.2167 407.872 64.8054C405.543 67.3202 402.732 68.6146 399.477 68.6146ZM398.701 64.2877C400.883 64.2877 402.769 63.4741 404.359 61.8099C405.949 60.1457 406.726 57.9267 406.726 55.19C406.726 52.4533 405.949 50.2344 404.359 48.5702C402.769 46.906 400.883 46.0554 398.701 46.0554C396.482 46.0554 394.559 46.8691 393.006 48.5333C391.452 50.1975 390.676 52.3794 390.676 55.19C390.676 57.9637 391.452 60.1826 393.006 61.8468C394.559 63.4741 396.445 64.2877 398.701 64.2877Z" fill="white"/>
<path d="M420.261 67.801H415.527V30.9297H420.261V67.801Z" fill="white"/>
<path d="M437.21 68.6147C433.4 68.6147 430.294 67.3574 427.927 64.8056C425.523 62.2538 424.34 59.0733 424.34 55.1902C424.34 51.5289 425.486 48.3485 427.816 45.7227C430.146 43.097 433.105 41.7656 436.692 41.7656C440.427 41.7656 443.423 42.986 445.679 45.4269C447.935 47.8677 449.044 51.1221 449.044 55.1902L449.007 56.0778H429.074C429.221 58.6295 430.072 60.6266 431.625 62.1059C433.179 63.5852 435.028 64.3248 437.099 64.3248C440.501 64.3248 442.794 62.8825 444.014 59.9979L448.23 61.736C447.417 63.6961 446.048 65.3233 444.162 66.6547C442.276 67.9491 439.946 68.6147 437.21 68.6147ZM444.014 52.1577C443.903 50.7153 443.238 49.347 442.017 48.0526C440.797 46.7582 438.985 46.0926 436.581 46.0926C434.843 46.0926 433.327 46.6473 432.032 47.7568C430.738 48.8662 429.85 50.3455 429.369 52.1946H444.014V52.1577Z" fill="white"/>
<path d="M469.824 36.25C469.159 36.9156 468.382 37.2115 467.457 37.2115C466.533 37.2115 465.756 36.8787 465.09 36.25C464.425 35.5843 464.129 34.8077 464.129 33.8831C464.129 32.9585 464.462 32.1819 465.09 31.5162C465.756 30.8506 466.533 30.5547 467.457 30.5547C468.382 30.5547 469.159 30.8875 469.824 31.5162C470.49 32.1819 470.786 32.9585 470.786 33.8831C470.786 34.8077 470.49 35.5843 469.824 36.25ZM469.824 67.7958H465.09V42.5739H469.824V67.7958Z" fill="white"/>
<path d="M480.549 42.5792V46.0926H480.771C481.474 44.9091 482.546 43.8736 484.025 43.023C485.505 42.1724 487.095 41.7656 488.759 41.7656C491.866 41.7656 494.269 42.7272 495.897 44.6503C497.561 46.5733 498.375 49.1621 498.375 52.3795V67.8381H493.641V53.1192C493.641 48.4594 491.57 46.1295 487.428 46.1295C485.468 46.1295 483.877 46.9062 482.657 48.4594C481.437 50.0127 480.808 51.8248 480.808 53.8958V67.8381H476.074V42.6162H480.549V42.5792Z" fill="white"/>
<path d="M526.152 68.2056C523.526 68.2056 521.492 67.503 520.087 66.0977C518.682 64.6923 518.016 62.6953 518.016 60.1435V46.9039H513.578V42.5769H518.016V34.8477H522.75V42.5769H528.926V46.9039H522.75V59.7737C522.75 62.5104 523.896 63.8787 526.152 63.8787C527.003 63.8787 527.742 63.7308 528.297 63.4719L529.961 67.54C528.926 67.9838 527.668 68.2056 526.152 68.2056Z" fill="white"/>
<path d="M538.423 30.9297V42.5791L538.201 46.0924H538.423C539.126 44.909 540.198 43.8735 541.678 43.0229C543.157 42.1723 544.747 41.7655 546.411 41.7655C549.518 41.7655 551.922 42.727 553.549 44.6501C555.213 46.5732 556.027 49.1619 556.027 52.3794V67.838H551.293V53.119C551.293 48.4593 549.222 46.1294 545.08 46.1294C543.12 46.1294 541.53 46.906 540.309 48.4593C539.089 50.0125 538.46 51.8247 538.46 53.8957V67.838H533.727V30.9667H538.423V30.9297Z" fill="white"/>
<path d="M573.034 68.6147C569.225 68.6147 566.118 67.3574 563.751 64.8056C561.347 62.2538 560.164 59.0733 560.164 55.1902C560.164 51.5289 561.311 48.3485 563.64 45.7227C565.97 43.097 568.929 41.7656 572.516 41.7656C576.251 41.7656 579.247 42.986 581.503 45.4269C583.759 47.8677 584.868 51.1221 584.868 55.1902L584.831 56.0778H564.898C565.046 58.6295 565.896 60.6266 567.45 62.1059C569.003 63.5852 570.852 64.3248 572.923 64.3248C576.325 64.3248 578.618 62.8825 579.839 59.9979L584.055 61.736C583.241 63.6961 581.873 65.3233 579.987 66.6547C578.1 67.9491 575.771 68.6147 573.034 68.6147ZM579.839 52.1577C579.728 50.7153 579.062 49.347 577.842 48.0526C576.621 46.7582 574.809 46.0926 572.405 46.0926C570.667 46.0926 569.151 46.6473 567.856 47.7568C566.562 48.8662 565.674 50.3455 565.194 52.1946H579.839V52.1577Z" fill="white"/>
<mask id="mask0_1720_979" style="mask-type:luminance" maskUnits="userSpaceOnUse" x="0" y="0" width="203" height="175">
<path d="M0 0V161.169C0 168.75 6.21302 175 13.8314 175H188.794C196.376 175 202.626 168.787 202.626 161.169V0H0V0ZM124.334 36.8343H78.2914C73.1879 36.8343 69.0828 32.7293 69.0828 27.6257C69.0828 22.5222 73.1879 18.4172 78.2914 18.4172H124.334C129.438 18.4172 133.543 22.5222 133.543 27.6257C133.543 32.7293 129.401 36.8343 124.334 36.8343Z" fill="white"/>
</mask>
<g mask="url(#mask0_1720_979)">
<path d="M0 0H202.626V174.963H0V0Z" fill="#EEEDEE"/>
</g>
<mask id="mask1_1720_979" style="mask-type:luminance" maskUnits="userSpaceOnUse" x="0" y="0" width="203" height="175">
<path d="M0 0V161.169C0 168.75 6.21302 175 13.8314 175H188.794C196.376 175 202.626 168.787 202.626 161.169V0H0V0ZM124.334 36.8343H78.2914C73.1879 36.8343 69.0828 32.7293 69.0828 27.6257C69.0828 22.5222 73.1879 18.4172 78.2914 18.4172H124.334C129.438 18.4172 133.543 22.5222 133.543 27.6257C133.543 32.7293 129.401 36.8343 124.334 36.8343Z" fill="white"/>
</mask>
<g mask="url(#mask1_1720_979)">
<path d="M124.333 18.418H78.2906C73.1871 18.418 69.082 22.523 69.082 27.6265C69.082 32.7301 73.1871 36.8351 78.2906 36.8351H124.333C129.437 36.8351 133.542 32.7301 133.542 27.6265C133.542 22.523 129.4 18.418 124.333 18.418Z" fill="white"/>
</g>
<mask id="mask2_1720_979" style="mask-type:luminance" maskUnits="userSpaceOnUse" x="0" y="0" width="203" height="175">
<path d="M0 0V161.169C0 168.75 6.21302 175 13.8314 175H188.794C196.376 175 202.626 168.787 202.626 161.169V0H0V0ZM124.334 36.8343H78.2914C73.1879 36.8343 69.0828 32.7293 69.0828 27.6257C69.0828 22.5222 73.1879 18.4172 78.2914 18.4172H124.334C129.438 18.4172 133.543 22.5222 133.543 27.6257C133.543 32.7293 129.401 36.8343 124.334 36.8343Z" fill="white"/>
</mask>
<g mask="url(#mask2_1720_979)">
<mask id="mask3_1720_979" style="mask-type:luminance" maskUnits="userSpaceOnUse" x="13" y="73" width="176" height="176">
<mask id="mask4_1720_979" style="mask-type:luminance" maskUnits="userSpaceOnUse" x="13" y="73" width="176" height="176">
<mask id="mask5_1720_979" style="mask-type:luminance" maskUnits="userSpaceOnUse" x="13" y="73" width="176" height="176">
<mask id="mask6_1720_979" style="mask-type:luminance" maskUnits="userSpaceOnUse" x="13" y="73" width="176" height="176">
<path d="M101.277 248.656C149.602 248.656 188.777 209.481 188.777 161.156C188.777 112.831 149.602 73.6562 101.277 73.6562C52.9524 73.6562 13.7773 112.831 13.7773 161.156C13.7773 209.481 52.9524 248.656 101.277 248.656Z" fill="white"/>
</mask>
<g mask="url(#mask6_1720_979)">
<path d="M101.277 248.656C149.602 248.656 188.777 209.481 188.777 161.156C188.777 112.831 149.602 73.6562 101.277 73.6562C52.9524 73.6562 13.7773 112.831 13.7773 161.156C13.7773 209.481 52.9524 248.656 101.277 248.656Z" fill="white"/>
</g>
</mask>
<g mask="url(#mask5_1720_979)">
<path d="M101.277 248.656C149.602 248.656 188.777 209.481 188.777 161.156C188.777 112.831 149.602 73.6562 101.277 73.6562C52.9524 73.6562 13.7773 112.831 13.7773 161.156C13.7773 209.481 52.9524 248.656 101.277 248.656Z" fill="white"/>
</g>
</mask>
<g mask="url(#mask4_1720_979)">
<path d="M101.281 248.66C149.606 248.66 188.781 209.485 188.781 161.16C188.781 112.835 149.606 73.6602 101.281 73.6602C52.9563 73.6602 13.7812 112.835 13.7812 161.16C13.7812 209.485 52.9563 248.66 101.281 248.66Z" fill="white"/>
</g>
</mask>
<g mask="url(#mask3_1720_979)">
<path d="M27.6992 73.668V181.027H66.8634L101.294 121.375H188.794V73.668H27.6992ZM27.6992 73.668V181.027H66.8634L101.294 121.375H188.794V73.668H27.6992Z" fill="#DC4637"/>
</g>
<mask id="mask7_1720_979" style="mask-type:luminance" maskUnits="userSpaceOnUse" x="13" y="73" width="176" height="176">
<mask id="mask8_1720_979" style="mask-type:luminance" maskUnits="userSpaceOnUse" x="13" y="73" width="176" height="176">
<mask id="mask9_1720_979" style="mask-type:luminance" maskUnits="userSpaceOnUse" x="13" y="73" width="176" height="176">
<mask id="mask10_1720_979" style="mask-type:luminance" maskUnits="userSpaceOnUse" x="13" y="73" width="176" height="176">
<path d="M101.277 248.656C149.602 248.656 188.777 209.481 188.777 161.156C188.777 112.831 149.602 73.6562 101.277 73.6562C52.9524 73.6562 13.7773 112.831 13.7773 161.156C13.7773 209.481 52.9524 248.656 101.277 248.656Z" fill="white"/>
</mask>
<g mask="url(#mask10_1720_979)">
<path d="M101.277 248.656C149.602 248.656 188.777 209.481 188.777 161.156C188.777 112.831 149.602 73.6562 101.277 73.6562C52.9524 73.6562 13.7773 112.831 13.7773 161.156C13.7773 209.481 52.9524 248.656 101.277 248.656Z" fill="white"/>
</g>
</mask>
<g mask="url(#mask9_1720_979)">
<path d="M101.277 248.656C149.602 248.656 188.777 209.481 188.777 161.156C188.777 112.831 149.602 73.6562 101.277 73.6562C52.9524 73.6562 13.7773 112.831 13.7773 161.156C13.7773 209.481 52.9524 248.656 101.277 248.656Z" fill="white"/>
</g>
</mask>
<g mask="url(#mask8_1720_979)">
<path d="M101.281 248.66C149.606 248.66 188.781 209.485 188.781 161.16C188.781 112.835 149.606 73.6602 101.281 73.6602C52.9563 73.6602 13.7812 112.835 13.7812 161.16C13.7812 209.485 52.9563 248.66 101.281 248.66Z" fill="white"/>
</g>
</mask>
<g mask="url(#mask7_1720_979)">
<path d="M13.7891 248.67H97.0731L135.72 210.023V181.066H66.8216L13.7891 90.0898V248.67ZM13.7891 248.67H97.0731L135.72 210.023V181.066H66.8216L13.7891 90.0898V248.67Z" fill="#0F9D58"/>
</g>
<mask id="mask11_1720_979" style="mask-type:luminance" maskUnits="userSpaceOnUse" x="13" y="73" width="176" height="176">
<mask id="mask12_1720_979" style="mask-type:luminance" maskUnits="userSpaceOnUse" x="13" y="73" width="176" height="176">
<mask id="mask13_1720_979" style="mask-type:luminance" maskUnits="userSpaceOnUse" x="13" y="73" width="176" height="176">
<mask id="mask14_1720_979" style="mask-type:luminance" maskUnits="userSpaceOnUse" x="13" y="73" width="176" height="176">
<path d="M101.277 248.656C149.602 248.656 188.777 209.481 188.777 161.156C188.777 112.831 149.602 73.6562 101.277 73.6562C52.9524 73.6562 13.7773 112.831 13.7773 161.156C13.7773 209.481 52.9524 248.656 101.277 248.656Z" fill="white"/>
</mask>
<g mask="url(#mask14_1720_979)">
<path d="M101.277 248.656C149.602 248.656 188.777 209.481 188.777 161.156C188.777 112.831 149.602 73.6562 101.277 73.6562C52.9524 73.6562 13.7773 112.831 13.7773 161.156C13.7773 209.481 52.9524 248.656 101.277 248.656Z" fill="white"/>
</g>
</mask>
<g mask="url(#mask13_1720_979)">
<path d="M101.277 248.656C149.602 248.656 188.777 209.481 188.777 161.156C188.777 112.831 149.602 73.6562 101.277 73.6562C52.9524 73.6562 13.7773 112.831 13.7773 161.156C13.7773 209.481 52.9524 248.656 101.277 248.656Z" fill="white"/>
</g>
</mask>
<g mask="url(#mask12_1720_979)">
<path d="M101.281 248.66C149.606 248.66 188.781 209.485 188.781 161.16C188.781 112.835 149.606 73.6602 101.281 73.6602C52.9563 73.6602 13.7812 112.835 13.7812 161.16C13.7812 209.485 52.9563 248.66 101.281 248.66Z" fill="white"/>
</g>
</mask>
<g mask="url(#mask11_1720_979)">
<path d="M101.29 121.41L135.721 181.063L97.0742 248.666H188.753V121.41H101.29ZM101.29 121.41L135.721 181.063L97.0742 248.666H188.753V121.41H101.29Z" fill="#FFCE41"/>
</g>
<mask id="mask15_1720_979" style="mask-type:luminance" maskUnits="userSpaceOnUse" x="13" y="73" width="176" height="176">
<mask id="mask16_1720_979" style="mask-type:luminance" maskUnits="userSpaceOnUse" x="13" y="73" width="176" height="176">
<mask id="mask17_1720_979" style="mask-type:luminance" maskUnits="userSpaceOnUse" x="13" y="73" width="176" height="176">
<mask id="mask18_1720_979" style="mask-type:luminance" maskUnits="userSpaceOnUse" x="13" y="73" width="176" height="176">
<path d="M101.277 248.656C149.602 248.656 188.777 209.481 188.777 161.156C188.777 112.831 149.602 73.6562 101.277 73.6562C52.9524 73.6562 13.7773 112.831 13.7773 161.156C13.7773 209.481 52.9524 248.656 101.277 248.656Z" fill="white"/>
</mask>
<g mask="url(#mask18_1720_979)">
<path d="M101.277 248.656C149.602 248.656 188.777 209.481 188.777 161.156C188.777 112.831 149.602 73.6562 101.277 73.6562C52.9524 73.6562 13.7773 112.831 13.7773 161.156C13.7773 209.481 52.9524 248.656 101.277 248.656Z" fill="white"/>
</g>
</mask>
<g mask="url(#mask17_1720_979)">
<path d="M101.277 248.656C149.602 248.656 188.777 209.481 188.777 161.156C188.777 112.831 149.602 73.6562 101.277 73.6562C52.9524 73.6562 13.7773 112.831 13.7773 161.156C13.7773 209.481 52.9524 248.656 101.277 248.656Z" fill="white"/>
</g>
</mask>
<g mask="url(#mask16_1720_979)">
<path d="M101.281 248.66C149.606 248.66 188.781 209.485 188.781 161.16C188.781 112.835 149.606 73.6602 101.281 73.6602C52.9563 73.6602 13.7812 112.835 13.7812 161.16C13.7812 209.485 52.9563 248.66 101.281 248.66Z" fill="white"/>
</g>
</mask>
<g mask="url(#mask15_1720_979)">
<path d="M101.287 200.922C123.244 200.922 141.043 183.123 141.043 161.166C141.043 139.209 123.244 121.41 101.287 121.41C79.3306 121.41 61.5312 139.209 61.5312 161.166C61.5312 183.123 79.3306 200.922 101.287 200.922Z" fill="#F2F2F2"/>
<path d="M101.281 192.965C118.847 192.965 133.086 178.725 133.086 161.16C133.086 143.595 118.847 129.355 101.281 129.355C83.716 129.355 69.4766 143.595 69.4766 161.16C69.4766 178.725 83.716 192.965 101.281 192.965Z" fill="#557EBF"/>
</g>
<mask id="mask19_1720_979" style="mask-type:luminance" maskUnits="userSpaceOnUse" x="-1" y="-1" width="204" height="176">
<path d="M-0.0117188 -0.0078125V161.161C-0.0117188 168.742 6.2013 174.992 13.8196 174.992H188.783C196.364 174.992 202.614 168.779 202.614 161.161V-0.0078125H-0.0117188V-0.0078125ZM124.323 36.8265H78.2797C73.1761 36.8265 69.0711 32.7215 69.0711 27.6179C69.0711 22.5144 73.1761 18.4094 78.2797 18.4094H124.323C129.426 18.4094 133.531 22.5144 133.531 27.6179C133.531 32.7215 129.389 36.8265 124.323 36.8265Z" fill="white"/>
</mask>
<g mask="url(#mask19_1720_979)">
<path d="M-0.0117188 -0.0078125H202.614V87.4922H-0.0117188V-0.0078125Z" fill="#212121" fill-opacity="0.05"/>
</g>
<path d="M-0.0078125 86.3555H202.618V87.5019H-0.0078125V86.3555Z" fill="#212121" fill-opacity="0.02"/>
<path d="M-0.0078125 87.4961H202.618V88.6425H-0.0078125V87.4961Z" fill="white" fill-opacity="0.05"/>
<path d="M124.326 36.8265H78.2836C73.4019 36.8265 69.4079 33.0173 69.112 28.2097C69.075 28.3946 69.075 28.5795 69.075 28.8014C69.075 33.9049 73.1801 38.01 78.2836 38.01H124.326C129.43 38.01 133.535 33.9049 133.535 28.8014C133.535 28.6164 133.535 28.4316 133.498 28.2097C133.202 33.0173 129.208 36.8265 124.326 36.8265ZM-0.0078125 -0.0078125V1.13866H202.618V-0.0078125H-0.0078125Z" fill="#212121" fill-opacity="0.02"/>
<path d="M78.2971 18.41H124.34C129.222 18.41 133.216 22.2192 133.512 27.0269C133.512 26.842 133.549 26.657 133.549 26.4351C133.549 21.3316 129.444 17.2266 124.34 17.2266H78.2971C73.1936 17.2266 69.0886 21.3316 69.0886 26.4351C69.0886 26.62 69.0885 26.805 69.1255 27.0269C69.3844 22.2562 73.3785 18.41 78.2971 18.41ZM188.8 173.846H13.8001C6.21874 173.846 -0.03125 167.633 -0.03125 160.015V161.161C-0.03125 168.743 6.18176 174.993 13.8001 174.993H188.763C196.344 174.993 202.594 168.78 202.594 161.161V160.015C202.594 167.633 196.381 173.846 188.8 173.846Z" fill="#231F20" fill-opacity="0.1"/>
<path d="M-0.0078125 -0.0078125V161.161C-0.0078125 168.742 6.20521 174.992 13.8236 174.992H188.787C196.368 174.992 202.618 168.779 202.618 161.161V-0.0078125H-0.0078125ZM124.326 36.8265H78.2836C73.1801 36.8265 69.075 32.7215 69.075 27.6179C69.075 22.5144 73.1801 18.4094 78.2836 18.4094H124.326C129.43 18.4094 133.535 22.5144 133.535 27.6179C133.535 32.7215 129.393 36.8265 124.326 36.8265Z" fill="url(#paint0_radial_1720_979)"/>
</g>
<defs>
<radialGradient id="paint0_radial_1720_979" cx="0" cy="0" r="1" gradientUnits="userSpaceOnUse" gradientTransform="translate(-0.586754 -0.752822) scale(262.004 262.005)">
<stop stop-color="white" stop-opacity="0.1"/>
<stop offset="1" stop-color="white" stop-opacity="0"/>
</radialGradient>
</defs>
</svg>
