<svg width="24" height="16" viewBox="0 0 24 16" fill="none" xmlns="http://www.w3.org/2000/svg">
<path fill-rule="evenodd" clip-rule="evenodd" d="M15.7979 0.461931C16.3049 1.27031 23.7168 13.4038 23.9324 14.0119C24.1781 14.7048 23.7234 15.258 23.0626 15.5898C22.6033 15.8207 22.0648 15.8591 19.2975 15.8591C16.5223 15.8591 15.996 15.8213 15.5528 15.5898C15.1449 15.3769 14.6933 14.7424 13.3884 12.5491C12.0144 10.2393 11.6475 9.73149 11.1865 9.50098C10.8006 9.3156 10.493 9.28343 10.102 9.44694C9.65504 9.63386 9.33782 10.0568 8.10509 12.1103C5.74603 16.0391 6.0162 15.8596 2.46516 15.8596C1.10926 15.8596 3.1221e-07 15.8185 3.1221e-07 15.7681C3.1221e-07 15.718 1.07159 13.8896 2.38151 11.7055C3.86611 9.22968 4.97813 7.54486 5.33441 7.23167C6.86959 5.88191 9.09811 5.525 10.7915 6.3577C11.2719 6.59406 11.7432 6.87631 12.119 7.30497C12.3685 7.58967 13.4449 9.27618 14.5106 11.0526C15.6406 12.9362 16.3222 14.2495 16.7255 14.3553C17.1735 14.4727 17.6665 14.2084 17.77 13.7951C17.8737 13.319 17.144 12.2084 13.9086 6.82102C11.7319 3.19656 9.8363 0.0634384 9.80109 0C9.80109 0 11.0712 8.6959e-07 12.5972 8.6959e-07H15.5253L15.7979 0.461931Z" fill="url(#paint0_radial_576_1505)"/>
<defs>
<radialGradient id="paint0_radial_576_1505" cx="0" cy="0" r="1" gradientUnits="userSpaceOnUse" gradientTransform="translate(12.0102 14.4375) rotate(108.082) scale(44.6856 150.348)">
<stop stop-color="white"/>
<stop offset="1" stop-color="white" stop-opacity="0.5"/>
</radialGradient>
</defs>
</svg>
